# xmcd
# Track frame offsets:
# 150
# 14216
# 29551
# 47007
# 59441
# 81532
# 96816
# 112726
# 127108
# 143850
# 155976
# 173230
#
# Disc length: 2486 seconds
# Revision: 2
# Processed by: cddbd v1.5.2PL0 Copyright (c) Steve Scherf et al.
# Submitted via: VisiTrax 2.11.3.279 - For more info visit www.synapsa.com
#
DISCID=b009b40c
DTITLE=Slim Dusty - Where Country Is
DYEAR=1981
DGENRE=Australian Country
TTITLE0=G'Day Blue
TTITLE1=Dinkum Bushman's Hands
TTITLE2=Where Country Is
TTITLE3=The Big Wet Is Over
TTITLE4=Mack (A Final Tribute)
TTITLE5=No Place On Earth Like Australia
TTITLE6=One Truckie's Epitaph
TTITLE7=The Bogong
TTITLE8=The Ocker
TTITLE9=Inigo Jones (Indigo Jones)
TTITLE10=Redford
TTITLE11=Big Yabbies From The Creek
EXTD=1981 EMI Music Australia 1996 EMI Music Australia
EXTT0=
EXTT1=
EXTT2=
EXTT3=
EXTT4=
EXTT5=
EXTT6=
EXTT7=
EXTT8=
EXTT9=
EXTT10=
EXTT11=
PLAYORDER=
